<?xml version="1.0" encoding="utf-8"?>
<!-- Generator: Adobe Illustrator 16.0.0, SVG Export Plug-In . SVG Version: 6.00 Build 0)  -->
<!DOCTYPE svg PUBLIC "-//W3C//DTD SVG 1.1//EN" "http://www.w3.org/Graphics/SVG/1.1/DTD/svg11.dtd">
<svg version="1.1" id="Layer_1" xmlns="http://www.w3.org/2000/svg" xmlns:xlink="http://www.w3.org/1999/xlink" x="0px" y="0px"
	 width="433.454px" height="40px" viewBox="0 0 433.454 40" enable-background="new 0 0 433.454 40" xml:space="preserve">
<g>
	<g>
		<path fill="#58595B" d="M4.875,0.616v37.769H0V0.616H4.875z"/>
		<path fill="#58595B" d="M12.721,32.444c2.186,1.344,5.379,2.465,8.741,2.465c4.987,0,7.901-2.634,7.901-6.444
			c0-3.53-2.017-5.548-7.116-7.509c-6.164-2.185-9.975-5.38-9.975-10.703C12.272,4.37,17.148,0,24.489,0
			c3.866,0,6.668,0.897,8.349,1.849l-1.345,3.979c-1.233-0.672-3.754-1.793-7.172-1.793c-5.155,0-7.116,3.082-7.116,5.66
			c0,3.529,2.296,5.267,7.508,7.283c6.388,2.466,9.638,5.548,9.638,11.096c0,5.827-4.314,10.871-13.225,10.871
			c-3.642,0-7.621-1.064-9.638-2.408L12.721,32.444z"/>
		<path fill="#58595B" d="M40.347,32.444c2.186,1.344,5.38,2.465,8.741,2.465c4.989,0,7.902-2.634,7.902-6.444
			c0-3.53-2.017-5.548-7.116-7.509c-6.165-2.185-9.975-5.38-9.975-10.703C39.898,4.37,44.774,0,52.115,0
			c3.866,0,6.667,0.897,8.349,1.849l-1.345,3.979c-1.233-0.672-3.755-1.793-7.172-1.793c-5.156,0-7.116,3.082-7.116,5.66
			c0,3.529,2.296,5.267,7.508,7.283c6.388,2.466,9.638,5.548,9.638,11.096c0,5.827-4.314,10.871-13.225,10.871
			c-3.642,0-7.62-1.064-9.638-2.408L40.347,32.444z"/>
		<path fill="#58595B" d="M74.755,26.504l-3.922,11.88h-5.043L78.621,0.616h5.884l12.888,37.769h-5.212l-4.034-11.88H74.755z
			 M87.138,22.694L83.44,11.823c-0.84-2.466-1.401-4.707-1.961-6.892h-0.111c-0.561,2.241-1.178,4.539-1.905,6.836l-3.699,10.927
			H87.138z"/>
		<path fill="#58595B" d="M128.494,37.151c-1.793,0.896-5.379,1.792-9.975,1.792c-10.647,0-18.66-6.724-18.66-19.108
			C99.859,8.013,107.872,0,119.584,0c4.708,0,7.678,1.009,8.966,1.68l-1.177,3.979c-1.85-0.896-4.483-1.57-7.62-1.57
			c-8.854,0-14.738,5.66-14.738,15.579c0,9.245,5.324,15.184,14.514,15.184c2.97,0,5.995-0.616,7.957-1.568L128.494,37.151z"/>
		<path fill="#58595B" d="M151.357,4.764h-11.486V0.616h27.96v4.148H156.29v33.621h-4.932V4.764z"/>
		<path fill="#58595B" d="M202.8,19.107c0,13-7.9,19.893-17.539,19.893c-9.975,0-16.978-7.733-16.978-19.165
			C168.283,7.846,175.735,0,185.822,0C196.132,0,202.8,7.9,202.8,19.107z M173.494,19.724c0,8.069,4.371,15.298,12.048,15.298
			c7.732,0,12.103-7.117,12.103-15.691c0-7.508-3.922-15.352-12.048-15.352C177.528,3.979,173.494,11.43,173.494,19.724z"/>
		<path fill="#58595B" d="M240.962,21.797c-0.28-5.267-0.617-11.599-0.56-16.307h-0.168c-1.289,4.428-2.859,9.135-4.763,14.345
			l-6.669,18.324h-3.698l-6.107-17.987c-1.793-5.324-3.306-10.198-4.371-14.682h-0.112c-0.111,4.708-0.392,11.041-0.728,16.699
			l-1.008,16.195h-4.651l2.634-37.769h6.219l6.444,18.268c1.569,4.65,2.857,8.797,3.811,12.719h0.168
			c0.954-3.81,2.298-7.956,3.979-12.719l6.725-18.268h6.219l2.353,37.769h-4.761L240.962,21.797z"/>
		<path fill="#58595B" d="M259.735,26.504l-3.921,11.88h-5.043l12.832-37.769h5.885l12.887,37.769h-5.211l-4.034-11.88H259.735z
			 M272.119,22.694l-3.699-10.872c-0.84-2.466-1.399-4.707-1.961-6.892h-0.113c-0.56,2.241-1.176,4.539-1.904,6.836l-3.699,10.927
			H272.119z"/>
		<path fill="#58595B" d="M290.782,4.764h-11.489V0.616h27.962v4.148h-11.544v33.621h-4.929V4.764z"/>
		<path fill="#58595B" d="M342.222,19.107c0,13-7.901,19.893-17.538,19.893c-9.976,0-16.98-7.733-16.98-19.165
			c0-11.99,7.454-19.835,17.54-19.835C335.555,0,342.222,7.9,342.222,19.107z M312.917,19.724c0,8.069,4.371,15.298,12.047,15.298
			c7.733,0,12.104-7.117,12.104-15.691c0-7.508-3.924-15.352-12.049-15.352C316.951,3.979,312.917,11.43,312.917,19.724z"/>
		<path fill="#58595B" d="M354.329,4.764h-11.487V0.616h27.962v4.148h-11.544v33.621h-4.931V4.764z"/>
		<path fill="#58595B" d="M376.911,26.504l-3.922,11.88h-5.043l12.832-37.769h5.885l12.887,37.769h-5.211l-4.034-11.88H376.911z
			 M389.295,22.694l-3.697-10.872c-0.841-2.466-1.401-4.707-1.962-6.892h-0.112c-0.56,2.241-1.177,4.539-1.904,6.836l-3.699,10.927
			H389.295z"/>
		<path fill="#58595B" d="M405.101,38.384V0.616h5.321l12.104,19.108c2.802,4.427,4.988,8.404,6.781,12.271l0.11-0.056
			c-0.447-5.042-0.56-9.638-0.56-15.521V0.616h4.596v37.769h-4.931L416.531,19.22c-2.635-4.203-5.156-8.517-7.061-12.608
			l-0.167,0.057c0.28,4.762,0.392,9.3,0.392,15.577v16.139H405.101z"/>
	</g>
</g>
</svg>
